<svg xmlns="http://www.w3.org/2000/svg" width="36" height="27" viewBox="0 0 36 27">
  <path id="Icon_awesome-image" data-name="Icon awesome-image" d="M32.625,31.5H3.375A3.375,3.375,0,0,1,0,28.125V7.875A3.375,3.375,0,0,1,3.375,4.5h29.25A3.375,3.375,0,0,1,36,7.875v20.25A3.375,3.375,0,0,1,32.625,31.5ZM7.875,8.438a3.938,3.938,0,1,0,3.938,3.938A3.937,3.937,0,0,0,7.875,8.438ZM4.5,27h27V19.125l-6.153-6.153a.844.844,0,0,0-1.193,0L14.625,22.5l-3.9-3.9a.844.844,0,0,0-1.193,0L4.5,23.625Z" transform="translate(0 -4.5)" fill="#fff"/>
</svg>
