<svg xmlns="http://www.w3.org/2000/svg" width="28" height="28" viewBox="0 0 28 28">
  <path id="Icon_awesome-link" data-name="Icon awesome-link" d="M17.862,10.139a8.308,8.308,0,0,1,.02,11.735l-.02.02-3.675,3.675A8.312,8.312,0,0,1,2.431,13.814L4.46,11.784a.874.874,0,0,1,1.493.58,10.077,10.077,0,0,0,.53,2.883.88.88,0,0,1-.207.908l-.716.716a3.938,3.938,0,1,0,5.533,5.6L14.768,18.8a3.937,3.937,0,0,0,0-5.569,4.1,4.1,0,0,0-.566-.469.877.877,0,0,1-.38-.689,2.178,2.178,0,0,1,.64-1.63l1.151-1.151A.879.879,0,0,1,16.739,9.2a8.339,8.339,0,0,1,1.122.94Zm7.707-7.708a8.322,8.322,0,0,0-11.756,0L10.138,6.106l-.02.02A8.314,8.314,0,0,0,11.261,18.8a.879.879,0,0,0,1.126-.095l1.151-1.151a2.178,2.178,0,0,0,.64-1.63.877.877,0,0,0-.38-.689,4.1,4.1,0,0,1-.566-.469,3.937,3.937,0,0,1,0-5.569l3.675-3.674a3.938,3.938,0,1,1,5.533,5.6l-.716.716a.88.88,0,0,0-.207.908,10.077,10.077,0,0,1,.53,2.883.874.874,0,0,0,1.493.58l2.029-2.029a8.321,8.321,0,0,0,0-11.756Z" transform="translate(0 0)" fill="#fff"/>
</svg>
