<svg xmlns="http://www.w3.org/2000/svg" width="32.828" height="32.828" viewBox="0 0 32.828 32.828">
  <g id="Icon_feather-image" data-name="Icon feather-image" transform="translate(-2.5 -2.5)">
    <path id="Path_29" data-name="Path 29" d="M7.611,4.5H29.389A3.111,3.111,0,0,1,32.5,7.611V29.389A3.111,3.111,0,0,1,29.389,32.5H7.611A3.111,3.111,0,0,1,4.5,29.389V7.611A3.111,3.111,0,0,1,7.611,4.5Z" transform="translate(0 0)" fill="none" stroke="#fff" stroke-linecap="round" stroke-linejoin="round" stroke-width="4"/>
    <path id="Path_30" data-name="Path 30" d="M15,12.75a2.25,2.25,0,1,1-2.25-2.25A2.25,2.25,0,0,1,15,12.75Z" transform="translate(0.267 0.267)" fill="none" stroke="#fff" stroke-linecap="round" stroke-linejoin="round" stroke-width="4"/>
    <path id="Path_31" data-name="Path 31" d="M32.5,22.5,24.687,15,7.5,31.5" transform="translate(0 1)" fill="none" stroke="#fff" stroke-linecap="round" stroke-linejoin="round" stroke-width="4"/>
  </g>
</svg>
