<svg xmlns="http://www.w3.org/2000/svg" width="40" height="36.458" viewBox="0 0 40 36.458">
  <path id="Icon_simple-atom" data-name="Icon simple-atom" d="M34.159,14.866a41.988,41.988,0,0,0-13.75-2.825c-.833-.05-1.645-.067-2.417-.067,3.863-4.717,8-7.883,10.729-7.983a2.279,2.279,0,0,1,1.355.327c1.177.763,1.508,2.947.908,5.983a.785.785,0,0,0,.6.9.762.762,0,0,0,.9-.6c.75-3.8.2-6.41-1.567-7.563a3.8,3.8,0,0,0-2.25-.577c-3.417.128-8.233,3.833-12.65,9.534a43.046,43.046,0,0,0-5.387.478c-1.077-4.828-.65-8.3.99-9.129a1.911,1.911,0,0,1,.762-.207c1.162-.09,2.767.658,4.517,2.117a.764.764,0,1,0,.977-1.175c-2.1-1.74-4.037-2.59-5.62-2.473a3.74,3.74,0,0,0-1.338.367C8.934,2.984,8.134,5.851,8.634,10.036c.117.867.267,1.77.483,2.7C3.649,13.83.165,16.02.015,18.776c-.1,1.95,1.442,3.807,4.467,5.37a.765.765,0,1,0,.7-1.36c-2.417-1.243-3.717-2.647-3.638-3.93.083-1.8,2.953-3.65,7.933-4.633a45.213,45.213,0,0,0,1.75,5.15,37.075,37.075,0,0,0-3.562,9c-.933,4.108-.433,7.033,1.433,8.247a3.744,3.744,0,0,0,2.078.583,10.233,10.233,0,0,0,5.578-2.287.763.763,0,1,0-.883-1.243c-2.573,1.838-4.74,2.453-5.937,1.672-1.267-.825-1.543-3.238-.767-6.627a34.341,34.341,0,0,1,2.847-7.533q.5,1.1,1.05,2.188a41.925,41.925,0,0,0,8.183,11.409c2.31,2.15,4.457,3.272,6.225,3.272a3.611,3.611,0,0,0,1.627-.372c1.908-.975,2.733-3.683,2.33-7.625A39.987,39.987,0,0,0,27.508,17.39a.766.766,0,0,0-1.383.66c4.483,9.337,4.8,16.984,2.283,18.267-2.65,1.355-9.04-3.925-13.984-13.634-.567-1.092-1.062-2.167-1.5-3.217.567-1.013,1.167-2.033,1.825-3.05s1.343-1.98,2.04-2.908h.657c.9,0,1.877.017,2.89.08,10.884.572,18.292,4.267,18.14,7.223-.067,1.275-1.54,2.563-4.042,3.533a.773.773,0,0,0-.433.993.759.759,0,0,0,.71.487.784.784,0,0,0,.278-.05c3.175-1.233,4.917-2.927,5.017-4.883.117-2.217-1.95-4.35-5.833-6v-.017Zm-20.694.707c-.45.692-.867,1.378-1.273,2.073-.487-1.28-.887-2.517-1.205-3.692,1.188-.183,2.475-.317,3.85-.4q-.7.975-1.367,2.017v-.017Zm6.542,1.958A2.292,2.292,0,1,0,22.3,19.823,2.292,2.292,0,0,0,20.007,17.531Z" transform="translate(-0.011 -1.595)" fill="#fff"/>
</svg>
