<svg xmlns="http://www.w3.org/2000/svg" width="26" height="29.714" viewBox="0 0 26 29.714">
  <path id="Icon_metro-files-empty" data-name="Icon metro-files-empty" d="M29.274,12.29A26.306,26.306,0,0,0,26.745,9.4a26.318,26.318,0,0,0-2.893-2.53c-1.5-1.1-2.223-1.224-2.638-1.224H10.534A2.324,2.324,0,0,0,8.213,7.964V29.321a2.324,2.324,0,0,0,2.321,2.321H28.177A2.324,2.324,0,0,0,30.5,29.321V14.928c0-.416-.127-1.142-1.224-2.638Zm-3.843-1.58a25.329,25.329,0,0,1,2.106,2.361H23.07V8.6A25.31,25.31,0,0,1,25.431,10.71Zm3.21,18.611a.471.471,0,0,1-.464.464H10.534a.471.471,0,0,1-.464-.464V7.964a.471.471,0,0,1,.464-.464H21.213V14a.929.929,0,0,0,.929.929h6.5Zm-8.5-26.168c-1.5-1.1-2.223-1.224-2.638-1.224H6.82A2.324,2.324,0,0,0,4.5,4.249V25.607a2.325,2.325,0,0,0,1.857,2.275V4.249a.471.471,0,0,1,.464-.464H20.948c-.28-.23-.552-.443-.811-.633Z" transform="translate(-4.499 -1.928)" fill="#ccc"/>
</svg>
