<svg xmlns="http://www.w3.org/2000/svg" width="30.857" height="27.429" viewBox="0 0 30.857 27.429">
  <path id="Icon_metro-images" data-name="Icon metro-images" d="M31.714,8.571H30V6.857a1.719,1.719,0,0,0-1.714-1.714h-24A1.719,1.719,0,0,0,2.571,6.857V27.429a1.719,1.719,0,0,0,1.714,1.714H6v1.714a1.719,1.719,0,0,0,1.714,1.714h24a1.719,1.719,0,0,0,1.714-1.714V10.286a1.719,1.719,0,0,0-1.714-1.714ZM6,10.286V27.429H4.289l0,0V6.86l0,0H28.283l0,0V8.571H7.714A1.719,1.719,0,0,0,6,10.286ZM31.714,30.854l0,0H7.717l0,0V10.289l0,0H31.711l0,0ZM28.286,14.571A2.571,2.571,0,1,1,25.714,12,2.571,2.571,0,0,1,28.286,14.571ZM30,29.143H9.429V25.714l6-10.286L22.286,24H24l6-5.143Z" transform="translate(-2.571 -5.143)" fill="#ccc"/>
</svg>
