<svg xmlns="http://www.w3.org/2000/svg" width="32" height="22.667" viewBox="0 0 32 22.667">
  <path id="Icon_material-laptop-mac" data-name="Icon material-laptop-mac" d="M26.667,24.5a2.663,2.663,0,0,0,2.653-2.667l.013-14.667A2.675,2.675,0,0,0,26.667,4.5H5.333A2.675,2.675,0,0,0,2.667,7.167V21.833A2.675,2.675,0,0,0,5.333,24.5H0a2.675,2.675,0,0,0,2.667,2.667H29.333A2.675,2.675,0,0,0,32,24.5ZM5.333,7.167H26.667V21.833H5.333ZM16,25.833A1.333,1.333,0,1,1,17.333,24.5,1.337,1.337,0,0,1,16,25.833Z" transform="translate(0 -4.5)" fill="#eaeaea"/>
</svg>
