<svg xmlns="http://www.w3.org/2000/svg" width="24.454" height="19.359" viewBox="0 0 24.454 19.359">
  <path id="Icon_material-tablet-mac" data-name="Icon material-tablet-mac" d="M19.812,0H5.547A2.548,2.548,0,0,0,3,2.547V21.907a2.548,2.548,0,0,0,2.547,2.547H19.812a2.548,2.548,0,0,0,2.547-2.547V2.547A2.548,2.548,0,0,0,19.812,0ZM12.68,23.435a1.528,1.528,0,1,1,1.528-1.528A1.526,1.526,0,0,1,12.68,23.435Zm7.642-4.076H5.038V3.057H20.321Z" transform="translate(0 22.359) rotate(-90)" fill="#eaeaea"/>
</svg>
