<svg xmlns="http://www.w3.org/2000/svg" width="28" height="22.75" viewBox="0 0 28 22.75">
  <path id="Icon_awesome-list-ul" data-name="Icon awesome-list-ul" d="M2.625,3.375A2.625,2.625,0,1,0,5.25,6,2.625,2.625,0,0,0,2.625,3.375Zm0,8.75A2.625,2.625,0,1,0,5.25,14.75,2.625,2.625,0,0,0,2.625,12.125Zm0,8.75A2.625,2.625,0,1,0,5.25,23.5a2.625,2.625,0,0,0-2.625-2.625Zm24.5.875H9.625a.875.875,0,0,0-.875.875v1.75a.875.875,0,0,0,.875.875h17.5A.875.875,0,0,0,28,24.375v-1.75A.875.875,0,0,0,27.125,21.75Zm0-17.5H9.625a.875.875,0,0,0-.875.875v1.75a.875.875,0,0,0,.875.875h17.5A.875.875,0,0,0,28,6.875V5.125A.875.875,0,0,0,27.125,4.25Zm0,8.75H9.625a.875.875,0,0,0-.875.875v1.75a.875.875,0,0,0,.875.875h17.5A.875.875,0,0,0,28,15.625v-1.75A.875.875,0,0,0,27.125,13Z" transform="translate(0 -3.375)" fill="#f77700"/>
</svg>
